<?xml version="1.0" standalone="no"?>
<!DOCTYPE svg PUBLIC "-//W3C//DTD SVG 20010904//EN"
 "http://www.w3.org/TR/2001/REC-SVG-20010904/DTD/svg10.dtd">
<svg version="1.0" xmlns="http://www.w3.org/2000/svg"
 width="512.000000pt" height="512.000000pt" viewBox="0 0 512.000000 512.000000"
 preserveAspectRatio="xMidYMid meet">

<g transform="translate(0.000000,512.000000) scale(0.100000,-0.100000)"
fill="#000000" stroke="none">
<path d="M2365 4599 c-801 -77 -1491 -626 -1746 -1391 -198 -592 -114 -1251
226 -1769 l56 -84 -139 -365 c-77 -201 -136 -366 -131 -368 4 -2 126 31 271
73 144 43 323 94 397 116 l133 38 83 -49 c115 -70 258 -135 397 -181 973 -326
2039 122 2489 1046 352 724 246 1589 -273 2210 -428 514 -1095 788 -1763 724z
m-410 -908 c54 -26 409 -383 430 -433 30 -73 13 -171 -38 -226 -12 -14 -49
-37 -82 -53 -72 -36 -112 -71 -136 -124 -31 -67 -21 -133 39 -251 85 -169 299
-372 468 -444 155 -67 267 -31 332 104 50 105 108 146 205 146 83 0 119 -25
319 -228 174 -175 187 -191 203 -244 20 -71 13 -129 -23 -189 -41 -67 -271
-285 -327 -310 -215 -95 -615 52 -1025 378 -127 102 -397 373 -500 503 -168
212 -293 427 -355 612 -63 189 -69 319 -20 425 33 72 246 292 319 328 61 30
134 33 191 6z"/>
</g>
</svg>
